<svg xmlns="http://www.w3.org/2000/svg" xmlns:xlink="http://www.w3.org/1999/xlink" width="480" zoomAndPan="magnify" viewBox="0 0 360 112.499997" height="150" preserveAspectRatio="xMidYMid meet" version="1.0"><defs><g/><clipPath id="38fb621388"><path d="M 0.824219 0.742188 L 359.175781 0.742188 L 359.175781 111.996094 L 0.824219 111.996094 Z M 0.824219 0.742188 " clip-rule="nonzero"/></clipPath><clipPath id="a08f9c90a3"><path d="M 20.238281 0.742188 L 339.761719 0.742188 C 344.910156 0.742188 349.847656 2.785156 353.488281 6.425781 C 357.128906 10.066406 359.175781 15.003906 359.175781 20.152344 L 359.175781 92.582031 C 359.175781 97.730469 357.128906 102.667969 353.488281 106.308594 C 349.847656 109.949219 344.910156 111.996094 339.761719 111.996094 L 20.238281 111.996094 C 15.089844 111.996094 10.152344 109.949219 6.511719 106.308594 C 2.871094 102.667969 0.824219 97.730469 0.824219 92.582031 L 0.824219 20.152344 C 0.824219 15.003906 2.871094 10.066406 6.511719 6.425781 C 10.152344 2.785156 15.089844 0.742188 20.238281 0.742188 Z M 20.238281 0.742188 " clip-rule="nonzero"/></clipPath><clipPath id="64afe95c81"><path d="M 21.410156 23.011719 L 42 23.011719 L 42 89.765625 L 21.410156 89.765625 Z M 21.410156 23.011719 " clip-rule="nonzero"/></clipPath><clipPath id="efff65337d"><path d="M 317 23.011719 L 337.492188 23.011719 L 337.492188 89.765625 L 317 89.765625 Z M 317 23.011719 " clip-rule="nonzero"/></clipPath></defs><g clip-path="url(#38fb621388)"><g clip-path="url(#a08f9c90a3)"><path fill="#7e56c2" d="M 0.824219 0.742188 L 359.175781 0.742188 L 359.175781 111.996094 L 0.824219 111.996094 Z M 0.824219 0.742188 " fill-opacity="1" fill-rule="nonzero"/></g></g><g clip-path="url(#64afe95c81)"><path fill="#efefef" d="M 39.953125 30.421875 L 41.808594 30.421875 L 41.808594 23.011719 L 39.953125 23.011719 C 33.816406 23.011719 28.835938 27.988281 28.835938 34.128906 L 28.835938 47.097656 C 28.835938 48.265625 28.289062 49.363281 27.355469 50.0625 L 22.910156 53.398438 C 22.019531 54.066406 21.476562 55.097656 21.429688 56.207031 C 21.382812 57.320312 21.839844 58.394531 22.671875 59.132812 L 27.59375 63.507812 C 28.382812 64.210938 28.835938 65.21875 28.835938 66.277344 L 28.835938 78.59375 C 28.835938 84.734375 33.816406 89.710938 39.953125 89.710938 L 41.808594 89.710938 L 41.808594 82.300781 L 39.953125 82.300781 C 37.90625 82.300781 36.25 80.640625 36.25 78.59375 L 36.25 66.277344 C 36.25 63.101562 34.890625 60.078125 32.515625 57.96875 L 30.984375 56.605469 L 31.800781 55.992188 C 34.601562 53.890625 36.25 50.597656 36.25 47.097656 L 36.25 34.128906 C 36.25 32.082031 37.90625 30.421875 39.953125 30.421875 Z M 39.953125 30.421875 " fill-opacity="1" fill-rule="evenodd"/></g><g clip-path="url(#efff65337d)"><path fill="#efefef" d="M 319.421875 30.421875 L 317.570312 30.421875 L 317.570312 23.011719 L 319.421875 23.011719 C 325.5625 23.011719 330.539062 27.988281 330.539062 34.128906 L 330.539062 47.097656 C 330.539062 48.265625 331.089844 49.363281 332.023438 50.0625 L 336.46875 53.398438 C 337.359375 54.066406 337.902344 55.097656 337.949219 56.207031 C 337.996094 57.320312 337.539062 58.394531 336.707031 59.132812 L 331.785156 63.507812 C 330.992188 64.210938 330.539062 65.21875 330.539062 66.277344 L 330.539062 78.59375 C 330.539062 84.734375 325.5625 89.710938 319.421875 89.710938 L 317.570312 89.710938 L 317.570312 82.300781 L 319.421875 82.300781 C 321.46875 82.300781 323.128906 80.640625 323.128906 78.59375 L 323.128906 66.277344 C 323.128906 63.101562 324.488281 60.078125 326.859375 57.96875 L 328.394531 56.605469 L 327.574219 55.992188 C 324.777344 53.890625 323.128906 50.597656 323.128906 47.097656 L 323.128906 34.128906 C 323.128906 32.082031 321.46875 30.421875 319.421875 30.421875 Z M 319.421875 30.421875 " fill-opacity="1" fill-rule="evenodd"/></g><g fill="#ffffff" fill-opacity="1"><g transform="translate(54.232533, 80.035494)"><g><path d="M 21.671875 -0.734375 C 18.710938 0.191406 16.101562 0.65625 13.84375 0.65625 C 10.976562 0.65625 8.878906 -0.00390625 7.546875 -1.328125 C 6.222656 -2.648438 5.5625 -4.769531 5.5625 -7.6875 L 5.5625 -27.703125 L 0.125 -27.703125 L 0.125 -32.078125 C 1.8125 -32.117188 3.316406 -32.710938 4.640625 -33.859375 C 5.960938 -35.003906 6.953125 -36.304688 7.609375 -37.765625 C 8.273438 -39.222656 8.804688 -40.816406 9.203125 -42.546875 L 14.96875 -42.546875 C 14.09375 -38.785156 13.65625 -35.582031 13.65625 -32.9375 L 21.671875 -32.9375 L 20.078125 -27.703125 L 13.65625 -27.703125 L 13.65625 -9.46875 C 13.65625 -6.507812 14.582031 -5.03125 16.4375 -5.03125 C 17.445312 -5.03125 18.878906 -5.253906 20.734375 -5.703125 Z M 21.671875 -0.734375 "/></g></g></g><g fill="#ffffff" fill-opacity="1"><g transform="translate(74.576875, 80.035494)"><g><path d="M 12.265625 0 L 4.3125 0 L 4.3125 -29.359375 C 4.3125 -29.398438 4.253906 -29.6875 4.140625 -30.21875 C 4.023438 -30.75 3.898438 -31.320312 3.765625 -31.9375 C 3.640625 -32.5625 3.578125 -32.894531 3.578125 -32.9375 L 12.265625 -32.9375 Z M 11.859375 -48.578125 C 12.878906 -47.554688 13.390625 -46.335938 13.390625 -44.921875 C 13.390625 -43.515625 12.890625 -42.3125 11.890625 -41.3125 C 10.898438 -40.320312 9.695312 -39.828125 8.28125 -39.828125 C 6.863281 -39.828125 5.660156 -40.320312 4.671875 -41.3125 C 3.679688 -42.3125 3.1875 -43.515625 3.1875 -44.921875 C 3.1875 -46.335938 3.679688 -47.550781 4.671875 -48.5625 C 5.660156 -49.582031 6.863281 -50.09375 8.28125 -50.09375 C 9.695312 -50.09375 10.890625 -49.585938 11.859375 -48.578125 Z M 11.859375 -48.578125 "/></g></g></g><g fill="#ffffff" fill-opacity="1"><g transform="translate(89.884834, 80.035494)"><g><path d="M 50.765625 0 L 42.8125 0 L 42.8125 -22 C 42.8125 -23.8125 42.5 -25.191406 41.875 -26.140625 C 41.257812 -27.085938 40.113281 -27.5625 38.4375 -27.5625 C 37.414062 -27.5625 36.273438 -27.1875 35.015625 -26.4375 C 33.753906 -25.6875 32.6875 -24.867188 31.8125 -23.984375 L 31.8125 0 L 23.796875 0 L 23.796875 -22.203125 C 23.796875 -25.773438 22.398438 -27.5625 19.609375 -27.5625 C 18.554688 -27.5625 17.398438 -27.195312 16.140625 -26.46875 C 14.878906 -25.738281 13.804688 -24.890625 12.921875 -23.921875 L 12.921875 0 L 4.96875 0 L 4.96875 -23.59375 C 4.96875 -28.007812 4.285156 -31.035156 2.921875 -32.671875 L 11.265625 -33.65625 C 11.796875 -32.507812 12.171875 -31.097656 12.390625 -29.421875 C 15.742188 -32.335938 19.125 -33.796875 22.53125 -33.796875 C 26.632812 -33.796875 29.375 -32.179688 30.75 -28.953125 C 33.96875 -32.179688 37.546875 -33.796875 41.484375 -33.796875 C 44.878906 -33.796875 47.273438 -32.800781 48.671875 -30.8125 C 50.066406 -28.820312 50.765625 -26.039062 50.765625 -22.46875 Z M 50.765625 0 "/></g></g></g><g fill="#ffffff" fill-opacity="1"><g transform="translate(143.495827, 80.035494)"><g><path d="M 1.71875 -16.5 C 1.71875 -21.363281 3.1875 -25.460938 6.125 -28.796875 C 9.0625 -32.128906 12.941406 -33.796875 17.765625 -33.796875 C 22.617188 -33.796875 26.503906 -32.140625 29.421875 -28.828125 C 32.335938 -25.515625 33.796875 -21.40625 33.796875 -16.5 C 33.796875 -11.59375 32.335938 -7.484375 29.421875 -4.171875 C 26.503906 -0.859375 22.617188 0.796875 17.765625 0.796875 C 12.898438 0.796875 9.007812 -0.859375 6.09375 -4.171875 C 3.175781 -7.484375 1.71875 -11.59375 1.71875 -16.5 Z M 17.765625 -28.359375 C 15.898438 -28.359375 14.382812 -27.648438 13.21875 -26.234375 C 12.050781 -24.828125 11.300781 -23.304688 10.96875 -21.671875 C 10.632812 -20.035156 10.46875 -18.289062 10.46875 -16.4375 C 10.46875 -14.582031 10.632812 -12.835938 10.96875 -11.203125 C 11.300781 -9.566406 12.050781 -8.039062 13.21875 -6.625 C 14.382812 -5.207031 15.898438 -4.5 17.765625 -4.5 C 19.222656 -4.5 20.46875 -4.875 21.5 -5.625 C 22.539062 -6.382812 23.289062 -7.40625 23.75 -8.6875 C 24.21875 -9.96875 24.550781 -11.222656 24.75 -12.453125 C 24.945312 -13.691406 25.046875 -15.015625 25.046875 -16.421875 C 25.046875 -17.835938 24.945312 -19.164062 24.75 -20.40625 C 24.550781 -21.644531 24.21875 -22.90625 23.75 -24.1875 C 23.289062 -25.46875 22.539062 -26.484375 21.5 -27.234375 C 20.46875 -27.984375 19.222656 -28.359375 17.765625 -28.359375 Z M 17.765625 -28.359375 "/></g></g></g><g fill="#ffffff" fill-opacity="1"><g transform="translate(177.690219, 80.035494)"><g><path d="M 32.203125 0 L 24.1875 0 L 24.1875 -21.46875 C 24.1875 -22.707031 24.117188 -23.710938 23.984375 -24.484375 C 23.859375 -25.253906 23.460938 -25.957031 22.796875 -26.59375 C 22.128906 -27.238281 21.203125 -27.5625 20.015625 -27.5625 C 19.035156 -27.5625 17.785156 -27.148438 16.265625 -26.328125 C 14.742188 -25.515625 13.609375 -24.710938 12.859375 -23.921875 L 12.859375 0 L 4.90625 0 L 4.90625 -23.59375 C 4.90625 -28.007812 4.21875 -31.035156 2.84375 -32.671875 L 11.203125 -33.65625 C 11.734375 -32.507812 12.109375 -31.097656 12.328125 -29.421875 C 15.597656 -32.378906 18.953125 -33.859375 22.390625 -33.859375 C 25.972656 -33.859375 28.503906 -32.863281 29.984375 -30.875 C 31.460938 -28.882812 32.203125 -26.015625 32.203125 -22.265625 Z M 32.203125 0 "/></g></g></g><g fill="#ffffff" fill-opacity="1"><g transform="translate(212.613577, 80.035494)"><g><path d="M 12.265625 0 L 4.3125 0 L 4.3125 -29.359375 C 4.3125 -29.398438 4.253906 -29.6875 4.140625 -30.21875 C 4.023438 -30.75 3.898438 -31.320312 3.765625 -31.9375 C 3.640625 -32.5625 3.578125 -32.894531 3.578125 -32.9375 L 12.265625 -32.9375 Z M 11.859375 -48.578125 C 12.878906 -47.554688 13.390625 -46.335938 13.390625 -44.921875 C 13.390625 -43.515625 12.890625 -42.3125 11.890625 -41.3125 C 10.898438 -40.320312 9.695312 -39.828125 8.28125 -39.828125 C 6.863281 -39.828125 5.660156 -40.320312 4.671875 -41.3125 C 3.679688 -42.3125 3.1875 -43.515625 3.1875 -44.921875 C 3.1875 -46.335938 3.679688 -47.550781 4.671875 -48.5625 C 5.660156 -49.582031 6.863281 -50.09375 8.28125 -50.09375 C 9.695312 -50.09375 10.890625 -49.585938 11.859375 -48.578125 Z M 11.859375 -48.578125 "/></g></g></g><g fill="#ffffff" fill-opacity="1"><g transform="translate(227.921543, 80.035494)"><g><path d="M 10.609375 -7.953125 C 11.617188 -6.929688 12.125 -5.710938 12.125 -4.296875 C 12.125 -2.890625 11.625 -1.6875 10.625 -0.6875 C 9.632812 0.300781 8.4375 0.796875 7.03125 0.796875 C 5.613281 0.796875 4.40625 0.300781 3.40625 -0.6875 C 2.414062 -1.6875 1.921875 -2.890625 1.921875 -4.296875 C 1.921875 -5.710938 2.414062 -6.925781 3.40625 -7.9375 C 4.40625 -8.957031 5.613281 -9.46875 7.03125 -9.46875 C 8.4375 -9.46875 9.628906 -8.960938 10.609375 -7.953125 Z M 10.609375 -7.953125 "/></g></g></g><g fill="#ffffff" fill-opacity="1"><g transform="translate(241.705346, 80.035494)"><g><path d="M 26.046875 -10.265625 C 26.046875 -6.867188 24.765625 -4.15625 22.203125 -2.125 C 19.640625 -0.09375 16.613281 0.921875 13.125 0.921875 C 9.238281 0.921875 5.570312 -0.0234375 2.125 -1.921875 L 4.96875 -7.359375 C 7.96875 -5.585938 10.460938 -4.703125 12.453125 -4.703125 C 13.867188 -4.703125 15.050781 -5.066406 16 -5.796875 C 16.945312 -6.523438 17.421875 -7.578125 17.421875 -8.953125 C 17.421875 -10.140625 16.925781 -11.128906 15.9375 -11.921875 C 14.945312 -12.722656 13.742188 -13.363281 12.328125 -13.84375 C 10.910156 -14.332031 9.484375 -14.894531 8.046875 -15.53125 C 6.609375 -16.175781 5.394531 -17.160156 4.40625 -18.484375 C 3.414062 -19.804688 2.921875 -21.460938 2.921875 -23.453125 C 2.921875 -26.765625 4.1875 -29.316406 6.71875 -31.109375 C 9.257812 -32.898438 12.234375 -33.796875 15.640625 -33.796875 C 19.390625 -33.796875 22.632812 -33.109375 25.375 -31.734375 L 22.59375 -26.171875 C 20.65625 -27.671875 18.46875 -28.421875 16.03125 -28.421875 C 14.800781 -28.421875 13.742188 -28.125 12.859375 -27.53125 C 11.972656 -26.9375 11.53125 -26.066406 11.53125 -24.921875 C 11.53125 -23.816406 12.023438 -22.910156 13.015625 -22.203125 C 14.015625 -21.492188 15.226562 -20.882812 16.65625 -20.375 C 18.09375 -19.863281 19.519531 -19.273438 20.9375 -18.609375 C 22.351562 -17.953125 23.554688 -16.925781 24.546875 -15.53125 C 25.546875 -14.144531 26.046875 -12.390625 26.046875 -10.265625 Z M 26.046875 -10.265625 "/></g></g></g><g fill="#ffffff" fill-opacity="1"><g transform="translate(268.875328, 80.035494)"><g><path d="M 31.875 0 L 23.859375 0 L 23.859375 -21.46875 C 23.859375 -22.707031 23.789062 -23.710938 23.65625 -24.484375 C 23.519531 -25.253906 23.117188 -25.957031 22.453125 -26.59375 C 21.796875 -27.238281 20.875 -27.5625 19.6875 -27.5625 C 18.707031 -27.5625 17.457031 -27.148438 15.9375 -26.328125 C 14.414062 -25.515625 13.28125 -24.710938 12.53125 -23.921875 L 12.53125 0 L 4.640625 0 L 4.640625 -47.375 L 3.84375 -50.953125 L 12.53125 -50.953125 L 12.53125 -29.8125 C 15.789062 -32.507812 18.96875 -33.859375 22.0625 -33.859375 C 25.644531 -33.859375 28.175781 -32.863281 29.65625 -30.875 C 31.132812 -28.882812 31.875 -26.015625 31.875 -22.265625 Z M 31.875 0 "/></g></g></g></svg>