<svg xmlns="http://www.w3.org/2000/svg" xmlns:xlink="http://www.w3.org/1999/xlink" width="373" zoomAndPan="magnify" viewBox="0 0 279.75 112.499997" height="150" preserveAspectRatio="xMidYMid meet" version="1.0"><defs><g/><clipPath id="3a1a7293a5"><path d="M 0.867188 0.742188 L 279.007812 0.742188 L 279.007812 111.996094 L 0.867188 111.996094 Z M 0.867188 0.742188 " clip-rule="nonzero"/></clipPath><clipPath id="7a94e7c957"><path d="M 20.28125 0.742188 L 259.59375 0.742188 C 264.742188 0.742188 269.679688 2.785156 273.320312 6.425781 C 276.960938 10.066406 279.007812 15.003906 279.007812 20.152344 L 279.007812 92.582031 C 279.007812 97.730469 276.960938 102.667969 273.320312 106.308594 C 269.679688 109.949219 264.742188 111.996094 259.59375 111.996094 L 20.28125 111.996094 C 15.132812 111.996094 10.195312 109.949219 6.554688 106.308594 C 2.914062 102.667969 0.867188 97.730469 0.867188 92.582031 L 0.867188 20.152344 C 0.867188 15.003906 2.914062 10.066406 6.554688 6.425781 C 10.195312 2.785156 15.132812 0.742188 20.28125 0.742188 Z M 20.28125 0.742188 " clip-rule="nonzero"/></clipPath><clipPath id="e4d87df4bb"><path d="M 21.453125 23.011719 L 42 23.011719 L 42 89.765625 L 21.453125 89.765625 Z M 21.453125 23.011719 " clip-rule="nonzero"/></clipPath><clipPath id="dbab4912bf"><path d="M 238 23.011719 L 258.308594 23.011719 L 258.308594 89.765625 L 238 89.765625 Z M 238 23.011719 " clip-rule="nonzero"/></clipPath></defs><g clip-path="url(#3a1a7293a5)"><g clip-path="url(#7a94e7c957)"><path fill="#7e56c2" d="M 0.867188 0.742188 L 279.007812 0.742188 L 279.007812 111.996094 L 0.867188 111.996094 Z M 0.867188 0.742188 " fill-opacity="1" fill-rule="nonzero"/></g></g><g clip-path="url(#e4d87df4bb)"><path fill="#efefef" d="M 39.996094 30.421875 L 41.851562 30.421875 L 41.851562 23.011719 L 39.996094 23.011719 C 33.855469 23.011719 28.878906 27.988281 28.878906 34.128906 L 28.878906 47.101562 C 28.878906 48.265625 28.328125 49.363281 27.398438 50.066406 L 22.949219 53.398438 C 22.058594 54.066406 21.515625 55.097656 21.46875 56.210938 C 21.425781 57.324219 21.878906 58.394531 22.710938 59.136719 L 27.636719 63.511719 C 28.425781 64.214844 28.878906 65.222656 28.878906 66.28125 L 28.878906 78.601562 C 28.878906 84.742188 33.855469 89.71875 39.996094 89.71875 L 41.851562 89.71875 L 41.851562 82.304688 L 39.996094 82.304688 C 37.949219 82.304688 36.289062 80.648438 36.289062 78.601562 L 36.289062 66.28125 C 36.289062 63.105469 34.933594 60.078125 32.558594 57.96875 L 31.027344 56.609375 L 31.84375 55.996094 C 34.644531 53.894531 36.289062 50.597656 36.289062 47.101562 L 36.289062 34.128906 C 36.289062 32.082031 37.949219 30.421875 39.996094 30.421875 Z M 39.996094 30.421875 " fill-opacity="1" fill-rule="evenodd"/></g><g clip-path="url(#dbab4912bf)"><path fill="#efefef" d="M 239.871094 30.421875 L 238.015625 30.421875 L 238.015625 23.011719 L 239.871094 23.011719 C 246.011719 23.011719 250.988281 27.988281 250.988281 34.128906 L 250.988281 47.101562 C 250.988281 48.265625 251.535156 49.363281 252.46875 50.066406 L 256.917969 53.398438 C 257.808594 54.066406 258.351562 55.097656 258.394531 56.210938 C 258.441406 57.324219 257.988281 58.394531 257.15625 59.136719 L 252.230469 63.511719 C 251.441406 64.214844 250.988281 65.222656 250.988281 66.28125 L 250.988281 78.601562 C 250.988281 84.742188 246.011719 89.71875 239.871094 89.71875 L 238.015625 89.71875 L 238.015625 82.304688 L 239.871094 82.304688 C 241.917969 82.304688 243.574219 80.648438 243.574219 78.601562 L 243.574219 66.28125 C 243.574219 63.105469 244.933594 60.078125 247.308594 57.96875 L 248.839844 56.609375 L 248.023438 55.996094 C 245.222656 53.894531 243.574219 50.597656 243.574219 47.101562 L 243.574219 34.128906 C 243.574219 32.082031 241.917969 30.421875 239.871094 30.421875 Z M 239.871094 30.421875 " fill-opacity="1" fill-rule="evenodd"/></g><g fill="#ffffff" fill-opacity="1"><g transform="translate(52.426917, 80.035494)"><g><path d="M 21.671875 -0.734375 C 18.710938 0.191406 16.101562 0.65625 13.84375 0.65625 C 10.976562 0.65625 8.878906 -0.00390625 7.546875 -1.328125 C 6.222656 -2.648438 5.5625 -4.769531 5.5625 -7.6875 L 5.5625 -27.703125 L 0.125 -27.703125 L 0.125 -32.078125 C 1.8125 -32.117188 3.316406 -32.710938 4.640625 -33.859375 C 5.960938 -35.003906 6.953125 -36.304688 7.609375 -37.765625 C 8.273438 -39.222656 8.804688 -40.816406 9.203125 -42.546875 L 14.96875 -42.546875 C 14.09375 -38.785156 13.65625 -35.582031 13.65625 -32.9375 L 21.671875 -32.9375 L 20.078125 -27.703125 L 13.65625 -27.703125 L 13.65625 -9.46875 C 13.65625 -6.507812 14.582031 -5.03125 16.4375 -5.03125 C 17.445312 -5.03125 18.878906 -5.253906 20.734375 -5.703125 Z M 21.671875 -0.734375 "/></g></g></g><g fill="#ffffff" fill-opacity="1"><g transform="translate(72.771258, 80.035494)"><g><path d="M 12.265625 0 L 4.3125 0 L 4.3125 -29.359375 C 4.3125 -29.398438 4.253906 -29.6875 4.140625 -30.21875 C 4.023438 -30.75 3.898438 -31.320312 3.765625 -31.9375 C 3.640625 -32.5625 3.578125 -32.894531 3.578125 -32.9375 L 12.265625 -32.9375 Z M 11.859375 -48.578125 C 12.878906 -47.554688 13.390625 -46.335938 13.390625 -44.921875 C 13.390625 -43.515625 12.890625 -42.3125 11.890625 -41.3125 C 10.898438 -40.320312 9.695312 -39.828125 8.28125 -39.828125 C 6.863281 -39.828125 5.660156 -40.320312 4.671875 -41.3125 C 3.679688 -42.3125 3.1875 -43.515625 3.1875 -44.921875 C 3.1875 -46.335938 3.679688 -47.550781 4.671875 -48.5625 C 5.660156 -49.582031 6.863281 -50.09375 8.28125 -50.09375 C 9.695312 -50.09375 10.890625 -49.585938 11.859375 -48.578125 Z M 11.859375 -48.578125 "/></g></g></g><g fill="#ffffff" fill-opacity="1"><g transform="translate(88.079218, 80.035494)"><g><path d="M 50.765625 0 L 42.8125 0 L 42.8125 -22 C 42.8125 -23.8125 42.5 -25.191406 41.875 -26.140625 C 41.257812 -27.085938 40.113281 -27.5625 38.4375 -27.5625 C 37.414062 -27.5625 36.273438 -27.1875 35.015625 -26.4375 C 33.753906 -25.6875 32.6875 -24.867188 31.8125 -23.984375 L 31.8125 0 L 23.796875 0 L 23.796875 -22.203125 C 23.796875 -25.773438 22.398438 -27.5625 19.609375 -27.5625 C 18.554688 -27.5625 17.398438 -27.195312 16.140625 -26.46875 C 14.878906 -25.738281 13.804688 -24.890625 12.921875 -23.921875 L 12.921875 0 L 4.96875 0 L 4.96875 -23.59375 C 4.96875 -28.007812 4.285156 -31.035156 2.921875 -32.671875 L 11.265625 -33.65625 C 11.796875 -32.507812 12.171875 -31.097656 12.390625 -29.421875 C 15.742188 -32.335938 19.125 -33.796875 22.53125 -33.796875 C 26.632812 -33.796875 29.375 -32.179688 30.75 -28.953125 C 33.96875 -32.179688 37.546875 -33.796875 41.484375 -33.796875 C 44.878906 -33.796875 47.273438 -32.800781 48.671875 -30.8125 C 50.066406 -28.820312 50.765625 -26.039062 50.765625 -22.46875 Z M 50.765625 0 "/></g></g></g><g fill="#ffffff" fill-opacity="1"><g transform="translate(141.690211, 80.035494)"><g><path d="M 1.71875 -16.5 C 1.71875 -21.363281 3.1875 -25.460938 6.125 -28.796875 C 9.0625 -32.128906 12.941406 -33.796875 17.765625 -33.796875 C 22.617188 -33.796875 26.503906 -32.140625 29.421875 -28.828125 C 32.335938 -25.515625 33.796875 -21.40625 33.796875 -16.5 C 33.796875 -11.59375 32.335938 -7.484375 29.421875 -4.171875 C 26.503906 -0.859375 22.617188 0.796875 17.765625 0.796875 C 12.898438 0.796875 9.007812 -0.859375 6.09375 -4.171875 C 3.175781 -7.484375 1.71875 -11.59375 1.71875 -16.5 Z M 17.765625 -28.359375 C 15.898438 -28.359375 14.382812 -27.648438 13.21875 -26.234375 C 12.050781 -24.828125 11.300781 -23.304688 10.96875 -21.671875 C 10.632812 -20.035156 10.46875 -18.289062 10.46875 -16.4375 C 10.46875 -14.582031 10.632812 -12.835938 10.96875 -11.203125 C 11.300781 -9.566406 12.050781 -8.039062 13.21875 -6.625 C 14.382812 -5.207031 15.898438 -4.5 17.765625 -4.5 C 19.222656 -4.5 20.46875 -4.875 21.5 -5.625 C 22.539062 -6.382812 23.289062 -7.40625 23.75 -8.6875 C 24.21875 -9.96875 24.550781 -11.222656 24.75 -12.453125 C 24.945312 -13.691406 25.046875 -15.015625 25.046875 -16.421875 C 25.046875 -17.835938 24.945312 -19.164062 24.75 -20.40625 C 24.550781 -21.644531 24.21875 -22.90625 23.75 -24.1875 C 23.289062 -25.46875 22.539062 -26.484375 21.5 -27.234375 C 20.46875 -27.984375 19.222656 -28.359375 17.765625 -28.359375 Z M 17.765625 -28.359375 "/></g></g></g><g fill="#ffffff" fill-opacity="1"><g transform="translate(175.884603, 80.035494)"><g><path d="M 32.203125 0 L 24.1875 0 L 24.1875 -21.46875 C 24.1875 -22.707031 24.117188 -23.710938 23.984375 -24.484375 C 23.859375 -25.253906 23.460938 -25.957031 22.796875 -26.59375 C 22.128906 -27.238281 21.203125 -27.5625 20.015625 -27.5625 C 19.035156 -27.5625 17.785156 -27.148438 16.265625 -26.328125 C 14.742188 -25.515625 13.609375 -24.710938 12.859375 -23.921875 L 12.859375 0 L 4.90625 0 L 4.90625 -23.59375 C 4.90625 -28.007812 4.21875 -31.035156 2.84375 -32.671875 L 11.203125 -33.65625 C 11.734375 -32.507812 12.109375 -31.097656 12.328125 -29.421875 C 15.597656 -32.378906 18.953125 -33.859375 22.390625 -33.859375 C 25.972656 -33.859375 28.503906 -32.863281 29.984375 -30.875 C 31.460938 -28.882812 32.203125 -26.015625 32.203125 -22.265625 Z M 32.203125 0 "/></g></g></g><g fill="#ffffff" fill-opacity="1"><g transform="translate(210.80796, 80.035494)"><g><path d="M 12.265625 0 L 4.3125 0 L 4.3125 -29.359375 C 4.3125 -29.398438 4.253906 -29.6875 4.140625 -30.21875 C 4.023438 -30.75 3.898438 -31.320312 3.765625 -31.9375 C 3.640625 -32.5625 3.578125 -32.894531 3.578125 -32.9375 L 12.265625 -32.9375 Z M 11.859375 -48.578125 C 12.878906 -47.554688 13.390625 -46.335938 13.390625 -44.921875 C 13.390625 -43.515625 12.890625 -42.3125 11.890625 -41.3125 C 10.898438 -40.320312 9.695312 -39.828125 8.28125 -39.828125 C 6.863281 -39.828125 5.660156 -40.320312 4.671875 -41.3125 C 3.679688 -42.3125 3.1875 -43.515625 3.1875 -44.921875 C 3.1875 -46.335938 3.679688 -47.550781 4.671875 -48.5625 C 5.660156 -49.582031 6.863281 -50.09375 8.28125 -50.09375 C 9.695312 -50.09375 10.890625 -49.585938 11.859375 -48.578125 Z M 11.859375 -48.578125 "/></g></g></g></svg>