<svg xmlns="http://www.w3.org/2000/svg" xmlns:xlink="http://www.w3.org/1999/xlink" width="406" zoomAndPan="magnify" viewBox="0 0 304.5 214.499994" height="286" preserveAspectRatio="xMidYMid meet" version="1.0"><defs><g/><clipPath id="5d87379edc"><path d="M 0.386719 25.308594 L 27 25.308594 L 27 110.609375 L 0.386719 110.609375 Z M 0.386719 25.308594 " clip-rule="nonzero"/></clipPath><clipPath id="38dc8c07ec"><path d="M 277 25.308594 L 303.777344 25.308594 L 303.777344 110.609375 L 277 110.609375 Z M 277 25.308594 " clip-rule="nonzero"/></clipPath><clipPath id="12a038a46d"><path d="M 2.347656 137 L 77.175781 137 L 77.175781 211.824219 L 2.347656 211.824219 Z M 2.347656 137 " clip-rule="nonzero"/></clipPath></defs><g clip-path="url(#5d87379edc)"><path fill="#efefef" d="M 24.117188 34.792969 L 26.488281 34.792969 L 26.488281 25.308594 L 24.117188 25.308594 C 16.261719 25.308594 9.890625 31.675781 9.890625 39.535156 L 9.890625 56.132812 C 9.890625 57.625 9.1875 59.03125 7.992188 59.925781 L 2.304688 64.195312 C 1.164062 65.046875 0.46875 66.367188 0.410156 67.789062 C 0.351562 69.210938 0.933594 70.585938 2 71.53125 L 8.296875 77.128906 C 9.3125 78.03125 9.890625 79.320312 9.890625 80.675781 L 9.890625 96.441406 C 9.890625 104.296875 16.261719 110.667969 24.117188 110.667969 L 26.488281 110.667969 L 26.488281 101.183594 L 24.117188 101.183594 C 21.5 101.183594 19.375 99.058594 19.375 96.441406 L 19.375 80.675781 C 19.375 76.609375 17.636719 72.742188 14.597656 70.042969 L 12.636719 68.296875 L 13.683594 67.511719 C 17.265625 64.824219 19.375 60.609375 19.375 56.132812 L 19.375 39.535156 C 19.375 36.914062 21.5 34.792969 24.117188 34.792969 Z M 24.117188 34.792969 " fill-opacity="1" fill-rule="evenodd"/></g><g clip-path="url(#38dc8c07ec)"><path fill="#efefef" d="M 279.882812 34.792969 L 277.511719 34.792969 L 277.511719 25.308594 L 279.882812 25.308594 C 287.738281 25.308594 294.109375 31.675781 294.109375 39.535156 L 294.109375 56.132812 C 294.109375 57.625 294.8125 59.03125 296.003906 59.925781 L 301.695312 64.195312 C 302.835938 65.046875 303.53125 66.367188 303.589844 67.789062 C 303.648438 69.210938 303.066406 70.585938 302 71.53125 L 295.699219 77.128906 C 294.6875 78.03125 294.109375 79.320312 294.109375 80.675781 L 294.109375 96.441406 C 294.109375 104.296875 287.738281 110.667969 279.882812 110.667969 L 277.511719 110.667969 L 277.511719 101.183594 L 279.882812 101.183594 C 282.5 101.183594 284.625 99.058594 284.625 96.441406 L 284.625 80.675781 C 284.625 76.609375 286.363281 72.742188 289.402344 70.042969 L 291.363281 68.296875 L 290.316406 67.511719 C 286.734375 64.824219 284.625 60.609375 284.625 56.132812 L 284.625 39.535156 C 284.625 36.914062 282.5 34.792969 279.882812 34.792969 Z M 279.882812 34.792969 " fill-opacity="1" fill-rule="evenodd"/></g><g fill="#efefef" fill-opacity="1"><g transform="translate(40.01904, 98.277648)"><g><path d="M 27.734375 -0.9375 C 23.941406 0.25 20.601562 0.84375 17.71875 0.84375 C 14.039062 0.84375 11.351562 0 9.65625 -1.6875 C 7.96875 -3.382812 7.125 -6.101562 7.125 -9.84375 L 7.125 -35.4375 L 0.171875 -35.4375 L 0.171875 -41.046875 C 2.316406 -41.097656 4.238281 -41.859375 5.9375 -43.328125 C 7.632812 -44.796875 8.90625 -46.460938 9.75 -48.328125 C 10.601562 -50.191406 11.28125 -52.226562 11.78125 -54.4375 L 19.171875 -54.4375 C 18.035156 -49.632812 17.46875 -45.535156 17.46875 -42.140625 L 27.734375 -42.140625 L 25.6875 -35.4375 L 17.46875 -35.4375 L 17.46875 -12.125 C 17.46875 -8.332031 18.65625 -6.4375 21.03125 -6.4375 C 22.332031 -6.4375 24.171875 -6.722656 26.546875 -7.296875 Z M 27.734375 -0.9375 "/></g></g></g><g fill="#efefef" fill-opacity="1"><g transform="translate(66.052441, 98.277648)"><g><path d="M 15.6875 0 L 5.515625 0 L 5.515625 -37.5625 C 5.515625 -37.625 5.441406 -37.992188 5.296875 -38.671875 C 5.160156 -39.347656 5.003906 -40.082031 4.828125 -40.875 C 4.660156 -41.664062 4.578125 -42.085938 4.578125 -42.140625 L 15.6875 -42.140625 Z M 15.171875 -62.15625 C 16.472656 -60.851562 17.125 -59.296875 17.125 -57.484375 C 17.125 -55.679688 16.488281 -54.144531 15.21875 -52.875 C 13.945312 -51.601562 12.40625 -50.96875 10.59375 -50.96875 C 8.789062 -50.96875 7.25 -51.601562 5.96875 -52.875 C 4.695312 -54.144531 4.0625 -55.679688 4.0625 -57.484375 C 4.0625 -59.296875 4.695312 -60.851562 5.96875 -62.15625 C 7.25 -63.457031 8.789062 -64.109375 10.59375 -64.109375 C 12.40625 -64.109375 13.929688 -63.457031 15.171875 -62.15625 Z M 15.171875 -62.15625 "/></g></g></g><g fill="#efefef" fill-opacity="1"><g transform="translate(85.641094, 98.277648)"><g><path d="M 64.953125 0 L 54.78125 0 L 54.78125 -28.15625 C 54.78125 -30.46875 54.382812 -32.234375 53.59375 -33.453125 C 52.800781 -34.671875 51.332031 -35.28125 49.1875 -35.28125 C 47.882812 -35.28125 46.425781 -34.796875 44.8125 -33.828125 C 43.207031 -32.867188 41.835938 -31.828125 40.703125 -30.703125 L 40.703125 0 L 30.4375 0 L 30.4375 -28.40625 C 30.4375 -32.988281 28.65625 -35.28125 25.09375 -35.28125 C 23.738281 -35.28125 22.253906 -34.8125 20.640625 -33.875 C 19.035156 -32.945312 17.664062 -31.859375 16.53125 -30.609375 L 16.53125 0 L 6.359375 0 L 6.359375 -30.1875 C 6.359375 -35.84375 5.484375 -39.71875 3.734375 -41.8125 L 14.421875 -43.078125 C 15.097656 -41.609375 15.578125 -39.800781 15.859375 -37.65625 C 20.148438 -41.382812 24.472656 -43.25 28.828125 -43.25 C 34.085938 -43.25 37.59375 -41.1875 39.34375 -37.0625 C 43.46875 -41.1875 48.046875 -43.25 53.078125 -43.25 C 57.429688 -43.25 60.5 -41.972656 62.28125 -39.421875 C 64.0625 -36.878906 64.953125 -33.320312 64.953125 -28.75 Z M 64.953125 0 "/></g></g></g><g fill="#efefef" fill-opacity="1"><g transform="translate(154.243781, 98.277648)"><g><path d="M 2.203125 -21.109375 C 2.203125 -27.328125 4.082031 -32.570312 7.84375 -36.84375 C 11.601562 -41.113281 16.5625 -43.25 22.71875 -43.25 C 28.9375 -43.25 33.910156 -41.128906 37.640625 -36.890625 C 41.378906 -32.648438 43.25 -27.390625 43.25 -21.109375 C 43.25 -14.835938 41.378906 -9.582031 37.640625 -5.34375 C 33.910156 -1.101562 28.9375 1.015625 22.71875 1.015625 C 16.5 1.015625 11.523438 -1.101562 7.796875 -5.34375 C 4.066406 -9.582031 2.203125 -14.835938 2.203125 -21.109375 Z M 22.71875 -36.296875 C 20.351562 -36.296875 18.421875 -35.390625 16.921875 -33.578125 C 15.421875 -31.765625 14.457031 -29.8125 14.03125 -27.71875 C 13.601562 -25.632812 13.390625 -23.40625 13.390625 -21.03125 C 13.390625 -18.65625 13.601562 -16.421875 14.03125 -14.328125 C 14.457031 -12.234375 15.421875 -10.28125 16.921875 -8.46875 C 18.421875 -6.664062 20.351562 -5.765625 22.71875 -5.765625 C 24.59375 -5.765625 26.191406 -6.242188 27.515625 -7.203125 C 28.847656 -8.171875 29.8125 -9.472656 30.40625 -11.109375 C 31 -12.742188 31.421875 -14.351562 31.671875 -15.9375 C 31.921875 -17.519531 32.046875 -19.21875 32.046875 -21.03125 C 32.046875 -22.84375 31.921875 -24.535156 31.671875 -26.109375 C 31.421875 -27.691406 31 -29.300781 30.40625 -30.9375 C 29.8125 -32.582031 28.847656 -33.882812 27.515625 -34.84375 C 26.191406 -35.8125 24.59375 -36.296875 22.71875 -36.296875 Z M 22.71875 -36.296875 "/></g></g></g><g fill="#efefef" fill-opacity="1"><g transform="translate(198.000239, 98.277648)"><g><path d="M 41.21875 0 L 30.953125 0 L 30.953125 -27.46875 C 30.953125 -29.050781 30.863281 -30.335938 30.6875 -31.328125 C 30.519531 -32.316406 30.007812 -33.222656 29.15625 -34.046875 C 28.3125 -34.867188 27.128906 -35.28125 25.609375 -35.28125 C 24.367188 -35.28125 22.769531 -34.753906 20.8125 -33.703125 C 18.863281 -32.660156 17.410156 -31.628906 16.453125 -30.609375 L 16.453125 0 L 6.28125 0 L 6.28125 -30.1875 C 6.28125 -35.84375 5.398438 -39.71875 3.640625 -41.8125 L 14.328125 -43.078125 C 15.003906 -41.609375 15.484375 -39.800781 15.765625 -37.65625 C 19.953125 -41.4375 24.25 -43.328125 28.65625 -43.328125 C 33.238281 -43.328125 36.476562 -42.054688 38.375 -39.515625 C 40.269531 -36.972656 41.21875 -33.296875 41.21875 -28.484375 Z M 41.21875 0 "/></g></g></g><g fill="#efefef" fill-opacity="1"><g transform="translate(242.689509, 98.277648)"><g><path d="M 15.6875 0 L 5.515625 0 L 5.515625 -37.5625 C 5.515625 -37.625 5.441406 -37.992188 5.296875 -38.671875 C 5.160156 -39.347656 5.003906 -40.082031 4.828125 -40.875 C 4.660156 -41.664062 4.578125 -42.085938 4.578125 -42.140625 L 15.6875 -42.140625 Z M 15.171875 -62.15625 C 16.472656 -60.851562 17.125 -59.296875 17.125 -57.484375 C 17.125 -55.679688 16.488281 -54.144531 15.21875 -52.875 C 13.945312 -51.601562 12.40625 -50.96875 10.59375 -50.96875 C 8.789062 -50.96875 7.25 -51.601562 5.96875 -52.875 C 4.695312 -54.144531 4.0625 -55.679688 4.0625 -57.484375 C 4.0625 -59.296875 4.695312 -60.851562 5.96875 -62.15625 C 7.25 -63.457031 8.789062 -64.109375 10.59375 -64.109375 C 12.40625 -64.109375 13.929688 -63.457031 15.171875 -62.15625 Z M 15.171875 -62.15625 "/></g></g></g><path fill="#efefef" d="M 176.796875 189.859375 C 178.816406 187.789062 181.152344 186.007812 182.863281 183.597656 C 186.125 179.015625 185.847656 176.136719 181.609375 172.558594 C 180.839844 171.910156 180.476562 171.457031 180.890625 170.449219 C 181.246094 169.582031 181.410156 168.625 181.558594 167.6875 C 182.375 162.515625 180.039062 159.300781 174.835938 158.9375 C 173.019531 158.808594 172.5625 158.1875 172.179688 156.597656 C 170.894531 151.25 167.398438 149.179688 161.933594 150.433594 C 160.527344 150.757812 159.578125 150.746094 158.5 149.496094 C 154.328125 144.667969 150.265625 144.628906 145.792969 149.449219 C 144.457031 150.886719 143.632812 151.085938 141.835938 150.195312 C 137.289062 147.945312 133.566406 149.769531 132.191406 155.097656 C 131.542969 157.609375 130.621094 158.742188 128.011719 159.265625 C 123.679688 160.140625 121.820312 163.90625 123.09375 168.875 C 123.613281 170.90625 123.742188 172.113281 121.671875 173.472656 C 118.527344 175.535156 118.1875 178.355469 120.140625 181.683594 C 120.882812 182.898438 121.730469 184.039062 122.691406 185.09375 C 123.574219 186.101562 124.617188 186.96875 125.425781 188.0625 C 122.066406 186.097656 119.007812 183.78125 116.898438 180.46875 C 114.542969 176.761719 115.046875 173.8125 118.742188 171.449219 C 120.625 170.242188 120.796875 169.246094 120.214844 167.171875 C 118.453125 160.910156 120.921875 157.320312 127.414062 156.347656 C 128.671875 156.15625 129.242188 155.742188 129.476562 154.539062 C 129.683594 153.414062 130 152.324219 130.433594 151.265625 C 132.433594 146.511719 136.113281 145 140.816406 147.226562 C 142.613281 148.074219 143.605469 148.023438 145.058594 146.492188 C 150.113281 141.164062 154.679688 141.308594 159.496094 146.835938 C 160.46875 147.953125 161.335938 147.886719 162.46875 147.605469 C 169.277344 145.910156 173.847656 148.941406 174.464844 154.792969 C 174.582031 155.917969 175.140625 156.519531 176.34375 156.324219 C 176.4375 156.3125 176.535156 156.3125 176.628906 156.324219 C 183.320312 156.785156 186.011719 160.382812 184.320312 166.867188 C 183.808594 168.816406 183.59375 170.09375 185.679688 171.480469 C 189 173.6875 189.332031 177.136719 187.183594 180.773438 C 185.398438 183.796875 181.089844 187.679688 176.796875 189.859375 Z M 176.796875 189.859375 " fill-opacity="1" fill-rule="nonzero"/><path fill="#efefef" d="M 143.757812 196.339844 C 137.769531 197.542969 131.507812 197.445312 125.683594 200.261719 C 138.757812 205.042969 162.425781 205.699219 178.378906 200.386719 C 175.503906 198.582031 172.398438 198.246094 169.398438 197.6875 C 166.433594 197.132812 163.425781 196.78125 160.382812 196.335938 C 160.703125 195.078125 161.175781 194.503906 162.414062 194.742188 C 167.246094 195.671875 172.171875 196.183594 176.828125 197.914062 C 177.957031 198.335938 179.4375 198.523438 179.574219 200.007812 C 179.722656 201.683594 178.730469 203.339844 177.25 203.558594 C 173.070312 204.175781 169.457031 207.199219 165.515625 207.222656 C 161.582031 207.242188 158.214844 207.148438 154.53125 209.179688 C 151.742188 210.71875 148.128906 209.570312 145.664062 207.042969 C 144.71875 206.074219 144.125 206.164062 143.035156 206.648438 C 139.730469 208.125 136.503906 207.824219 133.730469 205.433594 C 132.75 204.585938 131.898438 204.378906 130.683594 204.507812 C 129.3125 204.671875 128.035156 204.402344 126.847656 203.699219 C 125.460938 202.867188 124.386719 201.769531 124.503906 200.074219 C 124.609375 198.535156 126.09375 198.371094 127.207031 197.945312 C 131.855469 196.1875 136.769531 195.621094 141.617188 194.75 C 142.863281 194.523438 143.335938 195.128906 143.757812 196.339844 Z M 143.757812 196.339844 " fill-opacity="1" fill-rule="nonzero"/><path fill="#efefef" d="M 134.871094 177.839844 L 143.683594 177.839844 L 143.683594 186.648438 L 134.871094 186.648438 Z M 134.871094 177.839844 " fill-opacity="1" fill-rule="nonzero"/><path fill="#efefef" d="M 146.355469 177.839844 L 155.164062 177.839844 L 155.164062 186.648438 L 146.355469 186.648438 Z M 146.355469 177.839844 " fill-opacity="1" fill-rule="nonzero"/><path fill="#efefef" d="M 134.871094 189.324219 L 143.683594 189.324219 L 143.683594 198.132812 L 134.871094 198.132812 Z M 134.871094 189.324219 " fill-opacity="1" fill-rule="nonzero"/><path fill="#efefef" d="M 161.957031 164.941406 L 168.183594 158.710938 L 174.414062 164.941406 L 168.183594 171.167969 Z M 161.957031 164.941406 " fill-opacity="1" fill-rule="nonzero"/><path fill="#efefef" d="M 146.1875 170.03125 L 146.1875 170.113281 L 153.996094 174.039062 L 157.964844 166.191406 L 150.113281 162.222656 Z M 146.1875 170.03125 " fill-opacity="1" fill-rule="nonzero"/><path fill="#efefef" d="M 158.730469 182.335938 L 162.703125 174.472656 L 170.566406 178.445312 L 166.59375 186.308594 Z M 158.730469 182.335938 " fill-opacity="1" fill-rule="nonzero"/><path fill="#efefef" d="M 134.871094 166.355469 L 143.683594 166.355469 L 143.683594 175.167969 L 134.871094 175.167969 Z M 134.871094 166.355469 " fill-opacity="1" fill-rule="nonzero"/><path fill="#efefef" d="M 146.355469 189.324219 L 155.164062 189.324219 L 155.164062 198.132812 L 146.355469 198.132812 Z M 146.355469 189.324219 " fill-opacity="1" fill-rule="nonzero"/><path fill="#efefef" d="M 157.878906 189.324219 L 166.691406 189.324219 L 166.691406 198.132812 L 157.878906 198.132812 Z M 157.878906 189.324219 " fill-opacity="1" fill-rule="nonzero"/><path fill="#efefef" d="M 25.472656 166.433594 C 21.464844 166.433594 18.511719 169.4375 18.511719 174.386719 C 18.511719 179.335938 21.449219 182.335938 25.472656 182.335938 C 28.875 182.335938 31.359375 180.207031 31.867188 177.144531 L 29.507812 177.136719 C 29.109375 179.121094 27.445312 180.207031 25.488281 180.207031 C 22.832031 180.207031 20.828125 178.144531 20.828125 174.386719 C 20.828125 170.632812 22.824219 168.566406 25.492188 168.566406 C 27.464844 168.566406 29.121094 169.679688 29.507812 171.683594 L 29.507812 171.679688 L 31.867188 171.679688 C 31.335938 168.371094 28.746094 166.433594 25.472656 166.433594 Z M 48.125 166.648438 L 48.121094 166.648438 Z M 48.125 166.648438 L 48.125 182.128906 L 58.507812 182.128906 L 58.507812 180.117188 L 50.457031 180.117188 L 50.457031 175.378906 L 57.914062 175.378906 L 57.914062 173.375 L 50.457031 173.375 L 50.457031 168.660156 L 58.417969 168.660156 L 58.417969 166.648438 Z M 33.613281 166.648438 L 33.613281 176.890625 C 33.613281 180.382812 36.332031 182.386719 39.757812 182.386719 C 43.183594 182.386719 45.910156 180.382812 45.910156 176.890625 L 45.910156 166.648438 L 43.574219 166.648438 L 43.574219 176.855469 C 43.574219 179.023438 41.832031 180.242188 39.757812 180.242188 C 37.6875 180.242188 35.949219 179.023438 35.949219 176.855469 L 35.949219 166.648438 Z M 33.613281 166.648438 " fill-opacity="1" fill-rule="nonzero"/><path fill="#efefef" d="M 39.761719 142.601562 C 22.195312 142.601562 7.953125 156.84375 7.953125 174.410156 C 7.953125 191.980469 22.195312 206.21875 39.761719 206.21875 C 57.332031 206.21875 71.570312 191.980469 71.570312 174.410156 C 71.570312 156.84375 57.328125 142.601562 39.761719 142.601562 Z M 39.761719 204.550781 C 23.117188 204.550781 9.621094 191.054688 9.621094 174.410156 C 9.621094 157.761719 23.117188 144.269531 39.761719 144.269531 C 56.410156 144.269531 69.902344 157.765625 69.902344 174.410156 C 69.902344 191.058594 56.410156 204.554688 39.761719 204.554688 Z M 39.761719 204.550781 " fill-opacity="1" fill-rule="nonzero"/><g clip-path="url(#12a038a46d)"><path fill="#efefef" d="M 39.761719 137 C 19.097656 137 2.347656 153.75 2.347656 174.410156 C 2.347656 195.074219 19.097656 211.824219 39.761719 211.824219 C 60.425781 211.824219 77.175781 195.074219 77.175781 174.410156 C 77.175781 153.75 60.425781 137 39.761719 137 Z M 39.761719 208.226562 C 21.085938 208.226562 5.949219 193.085938 5.949219 174.410156 C 5.949219 155.738281 21.085938 140.597656 39.761719 140.597656 C 58.4375 140.597656 73.574219 155.738281 73.574219 174.410156 C 73.574219 193.085938 58.4375 208.226562 39.761719 208.226562 Z M 39.761719 208.226562 " fill-opacity="1" fill-rule="nonzero"/></g><path fill="#efefef" d="M 271.058594 180.753906 C 270.957031 180.734375 270.855469 180.726562 270.753906 180.734375 C 270.578125 180.742188 270.40625 180.785156 270.25 180.863281 C 270.09375 180.9375 269.960938 181.039062 269.847656 181.164062 C 269.730469 181.289062 269.644531 181.429688 269.585938 181.589844 C 269.527344 181.75 269.5 181.914062 269.503906 182.085938 C 269.507812 182.253906 269.542969 182.417969 269.609375 182.574219 L 269.601562 182.585938 L 272.625 189.894531 C 274.070312 188.96875 275.328125 187.835938 276.398438 186.496094 C 277.464844 185.152344 278.289062 183.671875 278.863281 182.054688 L 271.070312 180.738281 Z M 258.933594 181.789062 C 258.863281 181.496094 258.714844 181.25 258.476562 181.058594 C 258.242188 180.867188 257.972656 180.769531 257.667969 180.765625 C 257.578125 180.765625 257.492188 180.769531 257.40625 180.789062 L 257.394531 180.773438 L 249.667969 182.082031 C 250.25 183.6875 251.070312 185.15625 252.136719 186.488281 C 253.203125 187.820312 254.453125 188.945312 255.890625 189.863281 L 258.882812 182.632812 L 258.859375 182.601562 C 258.972656 182.339844 258.996094 182.070312 258.933594 181.789062 Z M 265.402344 184.628906 C 265.285156 184.414062 265.125 184.242188 264.917969 184.117188 C 264.707031 183.996094 264.480469 183.933594 264.238281 183.933594 C 263.996094 183.933594 263.769531 183.996094 263.5625 184.121094 C 263.351562 184.246094 263.191406 184.414062 263.078125 184.628906 L 263.070312 184.628906 L 259.273438 191.5 C 262.046875 192.445312 264.859375 192.589844 267.714844 191.933594 C 268.234375 191.816406 268.742188 191.671875 269.238281 191.507812 L 265.429688 184.628906 Z M 277.425781 168.671875 L 271.582031 173.902344 L 271.585938 173.917969 C 271.402344 174.078125 271.273438 174.273438 271.199219 174.503906 C 271.125 174.738281 271.113281 174.972656 271.167969 175.207031 C 271.222656 175.445312 271.332031 175.652344 271.5 175.828125 C 271.667969 176.003906 271.867188 176.121094 272.101562 176.1875 L 272.109375 176.21875 L 279.679688 178.398438 C 279.84375 176.699219 279.734375 175.015625 279.347656 173.351562 C 278.960938 171.6875 278.320312 170.128906 277.425781 168.671875 Z M 266.570312 169.257812 C 266.578125 169.5 266.652344 169.722656 266.785156 169.925781 C 266.921875 170.128906 267.097656 170.28125 267.316406 170.386719 C 267.535156 170.492188 267.765625 170.535156 268.007812 170.511719 C 268.25 170.488281 268.46875 170.40625 268.664062 170.265625 L 268.6875 170.273438 L 275.082031 165.738281 C 273.867188 164.546875 272.492188 163.582031 270.957031 162.839844 C 269.421875 162.101562 267.808594 161.628906 266.117188 161.417969 L 266.5625 169.253906 Z M 259.796875 170.292969 C 259.992188 170.4375 260.210938 170.519531 260.453125 170.539062 C 260.695312 170.5625 260.925781 170.519531 261.144531 170.414062 C 261.363281 170.308594 261.539062 170.15625 261.671875 169.953125 C 261.808594 169.75 261.878906 169.527344 261.890625 169.28125 L 261.921875 169.265625 L 262.367188 161.417969 C 261.828125 161.480469 261.296875 161.574219 260.769531 161.691406 C 257.910156 162.335938 255.4375 163.683594 253.347656 165.738281 L 259.785156 170.300781 Z M 256.363281 176.226562 C 256.597656 176.160156 256.800781 176.042969 256.96875 175.867188 C 257.136719 175.691406 257.25 175.484375 257.304688 175.246094 C 257.355469 175.007812 257.347656 174.773438 257.269531 174.542969 C 257.195312 174.3125 257.066406 174.117188 256.882812 173.957031 L 256.890625 173.925781 L 251.011719 168.667969 C 250.117188 170.128906 249.480469 171.695312 249.105469 173.363281 C 248.730469 175.035156 248.636719 176.722656 248.824219 178.425781 L 256.359375 176.25 Z M 262.074219 178.535156 L 264.242188 179.578125 L 266.402344 178.535156 L 266.9375 176.203125 L 265.441406 174.332031 L 263.035156 174.332031 L 261.535156 176.199219 Z M 262.074219 178.535156 " fill-opacity="1" fill-rule="nonzero"/><path fill="#efefef" d="M 300.078125 183.132812 L 293.902344 156.296875 C 293.734375 155.597656 293.421875 154.960938 292.96875 154.398438 C 292.515625 153.835938 291.964844 153.398438 291.316406 153.082031 L 266.308594 141.144531 C 265.652344 140.828125 264.960938 140.671875 264.234375 140.671875 C 263.507812 140.671875 262.816406 140.828125 262.160156 141.144531 L 237.160156 153.089844 C 236.507812 153.402344 235.957031 153.84375 235.503906 154.40625 C 235.050781 154.96875 234.742188 155.601562 234.574219 156.304688 L 228.40625 183.136719 C 228.25 183.824219 228.25 184.511719 228.402344 185.195312 C 228.449219 185.402344 228.507812 185.605469 228.578125 185.804688 C 228.699219 186.148438 228.859375 186.46875 229.054688 186.773438 C 229.140625 186.902344 229.226562 187.027344 229.324219 187.148438 L 246.628906 208.664062 C 246.707031 208.757812 246.789062 208.84375 246.871094 208.929688 C 247.144531 209.222656 247.449219 209.472656 247.785156 209.6875 C 248.210938 209.957031 248.667969 210.152344 249.152344 210.28125 C 249.550781 210.390625 249.957031 210.445312 250.367188 210.449219 L 250.636719 210.449219 L 278.117188 210.445312 C 278.285156 210.441406 278.453125 210.433594 278.617188 210.414062 C 278.855469 210.386719 279.09375 210.34375 279.324219 210.28125 C 279.488281 210.238281 279.652344 210.183594 279.8125 210.125 C 279.9375 210.074219 280.0625 210.027344 280.183594 209.96875 C 280.363281 209.882812 280.539062 209.785156 280.707031 209.679688 C 281.148438 209.402344 281.53125 209.0625 281.855469 208.664062 L 282.382812 208.007812 L 299.15625 187.144531 C 299.480469 186.738281 299.726562 186.289062 299.902344 185.800781 C 299.976562 185.601562 300.035156 185.398438 300.082031 185.191406 C 300.234375 184.503906 300.234375 183.816406 300.078125 183.128906 Z M 274.144531 193.566406 C 274.214844 193.773438 274.296875 193.976562 274.390625 194.171875 C 274.234375 194.449219 274.195312 194.746094 274.277344 195.054688 C 274.640625 195.890625 275.082031 196.679688 275.601562 197.429688 C 275.894531 197.8125 276.160156 198.210938 276.40625 198.621094 C 276.464844 198.734375 276.542969 198.90625 276.601562 199.027344 C 276.710938 199.207031 276.777344 199.402344 276.804688 199.613281 C 276.828125 199.824219 276.8125 200.03125 276.75 200.234375 C 276.6875 200.4375 276.589844 200.621094 276.449219 200.78125 C 276.3125 200.941406 276.144531 201.066406 275.953125 201.15625 C 275.761719 201.246094 275.558594 201.296875 275.347656 201.300781 C 275.136719 201.304688 274.933594 201.269531 274.734375 201.1875 C 274.539062 201.105469 274.367188 200.988281 274.222656 200.835938 C 274.078125 200.679688 273.96875 200.503906 273.894531 200.304688 C 273.839844 200.1875 273.757812 200.03125 273.710938 199.921875 C 273.539062 199.472656 273.394531 199.015625 273.277344 198.550781 C 273.015625 197.675781 272.675781 196.839844 272.25 196.03125 C 272.058594 195.773438 271.804688 195.621094 271.484375 195.570312 C 271.4375 195.488281 271.261719 195.164062 271.164062 194.992188 C 268.941406 195.835938 266.636719 196.253906 264.257812 196.25 C 261.878906 196.242188 259.578125 195.8125 257.355469 194.957031 L 257.015625 195.574219 C 256.769531 195.609375 256.554688 195.714844 256.371094 195.886719 C 255.859375 196.726562 255.472656 197.625 255.214844 198.574219 C 255.097656 199.039062 254.953125 199.496094 254.78125 199.945312 C 254.734375 200.054688 254.652344 200.210938 254.597656 200.328125 L 254.597656 200.332031 L 254.59375 200.332031 C 254.523438 200.53125 254.414062 200.710938 254.265625 200.863281 C 254.121094 201.015625 253.949219 201.136719 253.753906 201.214844 C 253.558594 201.296875 253.351562 201.335938 253.140625 201.328125 C 252.929688 201.324219 252.726562 201.277344 252.535156 201.183594 C 252.34375 201.09375 252.175781 200.96875 252.039062 200.808594 C 251.902344 200.644531 251.800781 200.464844 251.738281 200.261719 C 251.679688 200.058594 251.660156 199.851562 251.6875 199.640625 C 251.714844 199.429688 251.78125 199.234375 251.890625 199.050781 C 251.949219 198.933594 252.023438 198.761719 252.082031 198.648438 C 252.328125 198.234375 252.59375 197.835938 252.886719 197.453125 C 253.414062 196.683594 253.867188 195.871094 254.238281 195.019531 C 254.28125 194.722656 254.234375 194.441406 254.105469 194.171875 L 254.378906 193.519531 C 252.332031 192.308594 250.5625 190.777344 249.078125 188.921875 C 247.589844 187.066406 246.480469 185.007812 245.75 182.746094 L 245.097656 182.855469 C 244.839844 182.671875 244.550781 182.570312 244.238281 182.550781 C 243.34375 182.722656 242.472656 182.980469 241.628906 183.320312 C 241.191406 183.515625 240.742188 183.6875 240.285156 183.835938 C 240.175781 183.863281 240.019531 183.894531 239.898438 183.921875 C 239.886719 183.925781 239.878906 183.929688 239.871094 183.929688 C 239.863281 183.933594 239.855469 183.933594 239.847656 183.933594 C 239.644531 184 239.441406 184.023438 239.230469 184 C 239.019531 183.980469 238.820312 183.917969 238.636719 183.8125 C 238.453125 183.710938 238.296875 183.574219 238.171875 183.402344 C 238.046875 183.234375 237.960938 183.046875 237.914062 182.839844 C 237.867188 182.632812 237.863281 182.425781 237.902344 182.21875 C 237.941406 182.011719 238.023438 181.820312 238.144531 181.648438 C 238.265625 181.472656 238.414062 181.332031 238.597656 181.222656 C 238.777344 181.113281 238.972656 181.042969 239.183594 181.015625 L 239.203125 181.011719 L 239.214844 181.007812 C 239.339844 180.980469 239.503906 180.9375 239.617188 180.914062 C 240.09375 180.847656 240.570312 180.808594 241.050781 180.800781 C 241.960938 180.738281 242.855469 180.59375 243.734375 180.359375 C 243.996094 180.191406 244.210938 179.976562 244.378906 179.710938 L 245.003906 179.527344 C 244.664062 177.167969 244.757812 174.820312 245.285156 172.496094 C 245.808594 170.167969 246.734375 168.011719 248.058594 166.027344 L 247.578125 165.601562 C 247.558594 165.28125 247.460938 164.996094 247.277344 164.734375 C 246.585938 164.140625 245.84375 163.621094 245.050781 163.171875 C 244.625 162.953125 244.210938 162.710938 243.8125 162.445312 C 243.71875 162.378906 243.601562 162.277344 243.5 162.195312 L 243.480469 162.179688 C 243.308594 162.058594 243.167969 161.910156 243.058594 161.730469 C 242.945312 161.554688 242.875 161.359375 242.839844 161.15625 C 242.804688 160.949219 242.8125 160.742188 242.859375 160.539062 C 242.90625 160.332031 242.988281 160.144531 243.109375 159.976562 C 243.417969 159.597656 243.816406 159.421875 244.304688 159.449219 C 244.695312 159.464844 245.042969 159.597656 245.347656 159.839844 C 245.449219 159.921875 245.585938 160.027344 245.679688 160.105469 C 246.027344 160.433594 246.355469 160.785156 246.664062 161.152344 C 247.277344 161.824219 247.949219 162.433594 248.679688 162.976562 C 248.964844 163.125 249.261719 163.152344 249.570312 163.0625 C 249.75 163.191406 249.929688 163.320312 250.109375 163.445312 C 251.425781 162.046875 252.914062 160.871094 254.582031 159.921875 C 256.246094 158.96875 258.015625 158.28125 259.886719 157.859375 C 260.78125 157.65625 261.683594 157.519531 262.59375 157.441406 L 262.628906 156.808594 C 262.867188 156.597656 263.027344 156.339844 263.113281 156.035156 C 263.148438 155.125 263.09375 154.222656 262.949219 153.320312 C 262.851562 152.851562 262.785156 152.375 262.742188 151.898438 C 262.738281 151.789062 262.746094 151.640625 262.746094 151.515625 C 262.746094 151.5 262.742188 151.488281 262.742188 151.472656 C 262.722656 151.261719 262.746094 151.054688 262.8125 150.851562 C 262.878906 150.652344 262.980469 150.472656 263.125 150.3125 C 263.265625 150.15625 263.433594 150.035156 263.628906 149.945312 C 263.824219 149.859375 264.027344 149.816406 264.238281 149.816406 C 264.453125 149.816406 264.65625 149.859375 264.851562 149.945312 C 265.042969 150.03125 265.214844 150.15625 265.355469 150.3125 C 265.5 150.46875 265.601562 150.648438 265.667969 150.851562 C 265.734375 151.054688 265.757812 151.261719 265.738281 151.472656 C 265.738281 151.601562 265.746094 151.777344 265.738281 151.898438 C 265.699219 152.375 265.628906 152.851562 265.535156 153.320312 C 265.390625 154.21875 265.332031 155.125 265.367188 156.035156 C 265.425781 156.351562 265.589844 156.601562 265.855469 156.78125 C 265.859375 156.890625 265.878906 157.253906 265.890625 157.453125 C 268.257812 157.667969 270.507812 158.289062 272.648438 159.324219 C 274.785156 160.355469 276.671875 161.734375 278.3125 163.453125 L 278.882812 163.046875 C 279.195312 163.101562 279.496094 163.066406 279.789062 162.949219 C 280.519531 162.40625 281.195312 161.796875 281.808594 161.121094 C 282.117188 160.753906 282.445312 160.40625 282.796875 160.078125 C 282.886719 159.996094 283.027344 159.890625 283.128906 159.8125 C 283.277344 159.664062 283.453125 159.550781 283.652344 159.476562 C 283.855469 159.398438 284.058594 159.367188 284.273438 159.382812 C 284.484375 159.394531 284.6875 159.449219 284.875 159.546875 C 285.066406 159.644531 285.226562 159.777344 285.359375 159.945312 C 285.492188 160.113281 285.585938 160.300781 285.640625 160.503906 C 285.691406 160.710938 285.703125 160.921875 285.667969 161.128906 C 285.632812 161.339844 285.554688 161.535156 285.4375 161.710938 C 285.320312 161.890625 285.171875 162.035156 284.992188 162.152344 C 284.890625 162.234375 284.757812 162.347656 284.660156 162.417969 C 284.261719 162.683594 283.847656 162.925781 283.417969 163.144531 C 282.625 163.589844 281.882812 164.113281 281.191406 164.707031 C 280.984375 164.949219 280.890625 165.234375 280.910156 165.554688 C 280.828125 165.628906 280.535156 165.890625 280.382812 166.03125 C 281.707031 168.007812 282.640625 170.15625 283.175781 172.476562 C 283.714844 174.796875 283.820312 177.136719 283.5 179.5 L 284.101562 179.675781 C 284.257812 179.953125 284.472656 180.167969 284.75 180.324219 C 285.628906 180.558594 286.523438 180.703125 287.433594 180.765625 C 287.910156 180.777344 288.390625 180.8125 288.867188 180.878906 C 288.992188 180.902344 289.175781 180.953125 289.300781 180.984375 C 289.511719 181.011719 289.707031 181.078125 289.886719 181.1875 C 290.066406 181.296875 290.21875 181.441406 290.339844 181.613281 C 290.460938 181.789062 290.539062 181.976562 290.582031 182.1875 C 290.621094 182.394531 290.617188 182.601562 290.570312 182.804688 C 290.523438 183.011719 290.4375 183.199219 290.3125 183.371094 C 290.183594 183.539062 290.027344 183.675781 289.84375 183.78125 C 289.660156 183.882812 289.464844 183.945312 289.253906 183.964844 C 289.042969 183.988281 288.835938 183.964844 288.636719 183.898438 L 288.613281 183.894531 C 288.605469 183.894531 288.597656 183.886719 288.585938 183.886719 C 288.460938 183.859375 288.308594 183.832031 288.199219 183.804688 C 287.742188 183.65625 287.292969 183.484375 286.855469 183.285156 C 286.011719 182.945312 285.140625 182.6875 284.246094 182.515625 C 283.925781 182.507812 283.644531 182.609375 283.410156 182.828125 C 283.195312 182.789062 282.984375 182.75 282.769531 182.714844 C 282.046875 184.992188 280.941406 187.066406 279.453125 188.933594 C 277.96875 190.804688 276.199219 192.347656 274.144531 193.566406 Z M 274.144531 193.566406 " fill-opacity="1" fill-rule="nonzero"/></svg>