<svg xmlns="http://www.w3.org/2000/svg" xmlns:xlink="http://www.w3.org/1999/xlink" width="409" zoomAndPan="magnify" viewBox="0 0 306.75 96.749999" height="129" preserveAspectRatio="xMidYMid meet" version="1.0"><defs><g/><clipPath id="5619d5aef0"><path d="M 0.636719 11.214844 L 74.695312 11.214844 L 74.695312 85.273438 L 0.636719 85.273438 Z M 0.636719 11.214844 " clip-rule="nonzero"/></clipPath><clipPath id="eddeda4cc2"><path d="M 20.089844 11.214844 L 55.246094 11.214844 C 65.988281 11.214844 74.695312 19.921875 74.695312 30.664062 L 74.695312 65.824219 C 74.695312 76.566406 65.988281 85.273438 55.246094 85.273438 L 20.089844 85.273438 C 9.347656 85.273438 0.636719 76.566406 0.636719 65.824219 L 0.636719 30.664062 C 0.636719 19.921875 9.347656 11.214844 20.089844 11.214844 Z M 20.089844 11.214844 " clip-rule="nonzero"/></clipPath><clipPath id="47f3dcbe68"><path d="M 8.003906 26.039062 L 22 26.039062 L 22 70.152344 L 8.003906 70.152344 Z M 8.003906 26.039062 " clip-rule="nonzero"/></clipPath><clipPath id="668ed2d83a"><path d="M 53 26.039062 L 67.457031 26.039062 L 67.457031 70.152344 L 53 70.152344 Z M 53 26.039062 " clip-rule="nonzero"/></clipPath></defs><g clip-path="url(#5619d5aef0)"><g clip-path="url(#eddeda4cc2)"><path fill="#7e56c2" d="M 0.636719 11.214844 L 74.695312 11.214844 L 74.695312 85.273438 L 0.636719 85.273438 Z M 0.636719 11.214844 " fill-opacity="1" fill-rule="nonzero"/></g></g><g clip-path="url(#47f3dcbe68)"><path fill="#efefef" d="M 20.34375 30.972656 L 21.578125 30.972656 L 21.578125 26.039062 L 20.34375 26.039062 C 16.257812 26.039062 12.941406 29.351562 12.941406 33.441406 L 12.941406 42.074219 C 12.941406 42.851562 12.578125 43.582031 11.957031 44.050781 L 8.996094 46.269531 C 8.402344 46.714844 8.042969 47.402344 8.011719 48.140625 C 7.980469 48.882812 8.285156 49.597656 8.835938 50.085938 L 12.113281 53 C 12.640625 53.46875 12.941406 54.140625 12.941406 54.84375 L 12.941406 63.046875 C 12.941406 67.132812 16.257812 70.449219 20.34375 70.449219 L 21.578125 70.449219 L 21.578125 65.511719 L 20.34375 65.511719 C 18.980469 65.511719 17.878906 64.410156 17.878906 63.046875 L 17.878906 54.84375 C 17.878906 52.730469 16.972656 50.714844 15.394531 49.3125 L 14.371094 48.40625 L 14.917969 47.996094 C 16.78125 46.597656 17.878906 44.40625 17.878906 42.074219 L 17.878906 33.441406 C 17.878906 32.078125 18.980469 30.972656 20.34375 30.972656 Z M 20.34375 30.972656 " fill-opacity="1" fill-rule="evenodd"/></g><g clip-path="url(#668ed2d83a)"><path fill="#efefef" d="M 55.226562 30.972656 L 53.992188 30.972656 L 53.992188 26.039062 L 55.226562 26.039062 C 59.3125 26.039062 62.628906 29.351562 62.628906 33.441406 L 62.628906 42.074219 C 62.628906 42.851562 62.992188 43.582031 63.613281 44.050781 L 66.574219 46.269531 C 67.167969 46.714844 67.527344 47.402344 67.558594 48.140625 C 67.589844 48.882812 67.285156 49.597656 66.734375 50.085938 L 63.457031 53 C 62.929688 53.46875 62.628906 54.140625 62.628906 54.84375 L 62.628906 63.046875 C 62.628906 67.132812 59.3125 70.449219 55.226562 70.449219 L 53.992188 70.449219 L 53.992188 65.511719 L 55.226562 65.511719 C 56.589844 65.511719 57.691406 64.410156 57.691406 63.046875 L 57.691406 54.84375 C 57.691406 52.730469 58.597656 50.714844 60.179688 49.3125 L 61.199219 48.40625 L 60.652344 47.996094 C 58.789062 46.597656 57.691406 44.40625 57.691406 42.074219 L 57.691406 33.441406 C 57.691406 32.078125 56.589844 30.972656 55.226562 30.972656 Z M 55.226562 30.972656 " fill-opacity="1" fill-rule="evenodd"/></g><g fill="#ffffff" fill-opacity="1"><g transform="translate(29.654621, 63.17223)"><g><path d="M 14.421875 -0.484375 C 12.453125 0.128906 10.71875 0.4375 9.21875 0.4375 C 7.3125 0.4375 5.914062 0 5.03125 -0.875 C 4.144531 -1.757812 3.703125 -3.171875 3.703125 -5.109375 L 3.703125 -18.4375 L 0.09375 -18.4375 L 0.09375 -21.34375 C 1.207031 -21.375 2.203125 -21.769531 3.078125 -22.53125 C 3.960938 -23.300781 4.625 -24.171875 5.0625 -25.140625 C 5.507812 -26.109375 5.863281 -27.164062 6.125 -28.3125 L 9.96875 -28.3125 C 9.382812 -25.8125 9.09375 -23.679688 9.09375 -21.921875 L 14.421875 -21.921875 L 13.359375 -18.4375 L 9.09375 -18.4375 L 9.09375 -6.3125 C 9.09375 -4.34375 9.707031 -3.359375 10.9375 -3.359375 C 11.613281 -3.359375 12.570312 -3.503906 13.8125 -3.796875 Z M 14.421875 -0.484375 "/></g></g></g><g fill="#ffffff" fill-opacity="1"><g transform="translate(89.313545, 63.626051)"><g><path d="M 18.6875 0 L 18.6875 -27.902344 L 28.671875 -27.902344 L 28.671875 -34.335938 L 1.285156 -34.335938 L 1.285156 -27.902344 L 11.324219 -27.902344 L 11.324219 0 Z M 18.6875 0 "/></g></g></g><g fill="#ffffff" fill-opacity="1"><g transform="translate(121.844635, 63.626051)"><g><path d="M 10.707031 0 L 10.707031 -34.335938 L 3.398438 -34.335938 L 3.398438 0 Z M 10.707031 0 "/></g></g></g><g fill="#ffffff" fill-opacity="1"><g transform="translate(138.522167, 63.626051)"><g><path d="M 40.617188 0 L 40.617188 -34.335938 L 30.320312 -34.335938 L 21.980469 -12.921875 L 13.640625 -34.335938 L 3.398438 -34.335938 L 3.398438 0 L 10.707031 0 L 10.707031 -24.710938 L 20.386719 0 L 23.578125 0 L 33.253906 -24.710938 L 33.253906 0 Z M 40.617188 0 "/></g></g></g><g fill="#ffffff" fill-opacity="1"><g transform="translate(185.10529, 63.626051)"><g><path d="M 1.75 -17.140625 C 1.75 -6.796875 9.316406 0.617188 19.664062 0.617188 C 30.0625 0.617188 37.628906 -6.796875 37.628906 -17.140625 C 37.628906 -27.488281 30.0625 -34.902344 19.664062 -34.902344 C 9.316406 -34.902344 1.75 -27.488281 1.75 -17.140625 Z M 30.113281 -17.140625 C 30.113281 -10.757812 25.996094 -5.867188 19.664062 -5.867188 C 13.332031 -5.867188 9.265625 -10.757812 9.265625 -17.140625 C 9.265625 -23.578125 13.332031 -28.414062 19.664062 -28.414062 C 25.996094 -28.414062 30.113281 -23.578125 30.113281 -17.140625 Z M 30.113281 -17.140625 "/></g></g></g><g fill="#ffffff" fill-opacity="1"><g transform="translate(227.05587, 63.626051)"><g><path d="M 34.128906 0 L 34.128906 -34.335938 L 26.820312 -34.335938 L 26.820312 -12.097656 L 10.914062 -34.335938 L 3.398438 -34.335938 L 3.398438 0 L 10.707031 0 L 10.707031 -23.0625 L 27.078125 0 Z M 34.128906 0 "/></g></g></g><g fill="#ffffff" fill-opacity="1"><g transform="translate(267.15343, 63.626051)"><g><path d="M 10.707031 0 L 10.707031 -34.335938 L 3.398438 -34.335938 L 3.398438 0 Z M 10.707031 0 "/></g></g></g></svg>