<svg xmlns="http://www.w3.org/2000/svg" xmlns:xlink="http://www.w3.org/1999/xlink" width="201" zoomAndPan="magnify" viewBox="0 0 150.75 150.75" height="201" preserveAspectRatio="xMidYMid meet" version="1.0"><defs><g/><clipPath id="b0b8d504bd"><path d="M 0.597656 0.597656 L 150.351562 0.597656 L 150.351562 150.351562 L 0.597656 150.351562 Z M 0.597656 0.597656 " clip-rule="nonzero"/></clipPath><clipPath id="c76ffabd10"><path d="M 20.066406 0.597656 L 130.882812 0.597656 C 136.046875 0.597656 141 2.652344 144.648438 6.300781 C 148.300781 9.953125 150.351562 14.902344 150.351562 20.066406 L 150.351562 130.882812 C 150.351562 141.636719 141.636719 150.351562 130.882812 150.351562 L 20.066406 150.351562 C 14.902344 150.351562 9.953125 148.300781 6.300781 144.648438 C 2.652344 141 0.597656 136.046875 0.597656 130.882812 L 0.597656 20.066406 C 0.597656 9.316406 9.316406 0.597656 20.066406 0.597656 Z M 20.066406 0.597656 " clip-rule="nonzero"/></clipPath><clipPath id="b2e5855cac"><path d="M 15.492188 30.578125 L 43 30.578125 L 43 120.425781 L 15.492188 120.425781 Z M 15.492188 30.578125 " clip-rule="nonzero"/></clipPath><clipPath id="3b8e2aee06"><path d="M 108 30.578125 L 135.859375 30.578125 L 135.859375 120.425781 L 108 120.425781 Z M 108 30.578125 " clip-rule="nonzero"/></clipPath></defs><g clip-path="url(#b0b8d504bd)"><g clip-path="url(#c76ffabd10)"><path fill="#7e56c2" d="M 0.597656 0.597656 L 150.351562 0.597656 L 150.351562 150.351562 L 0.597656 150.351562 Z M 0.597656 0.597656 " fill-opacity="1" fill-rule="nonzero"/></g></g><g clip-path="url(#b2e5855cac)"><path fill="#efefef" d="M 40.449219 40.554688 L 42.945312 40.554688 L 42.945312 30.578125 L 40.449219 30.578125 C 32.183594 30.578125 25.484375 37.277344 25.484375 45.542969 L 25.484375 63.003906 C 25.484375 64.574219 24.746094 66.050781 23.488281 66.992188 L 17.503906 71.484375 C 16.304688 72.382812 15.574219 73.769531 15.511719 75.265625 C 15.449219 76.761719 16.0625 78.207031 17.183594 79.203125 L 23.808594 85.09375 C 24.875 86.039062 25.484375 87.398438 25.484375 88.820312 L 25.484375 105.40625 C 25.484375 113.671875 32.183594 120.371094 40.449219 120.371094 L 42.945312 120.371094 L 42.945312 110.394531 L 40.449219 110.394531 C 37.695312 110.394531 35.460938 108.160156 35.460938 105.40625 L 35.460938 88.820312 C 35.460938 84.546875 33.632812 80.476562 30.4375 77.636719 L 28.375 75.800781 L 29.476562 74.976562 C 33.242188 72.148438 35.460938 67.714844 35.460938 63.003906 L 35.460938 45.542969 C 35.460938 42.789062 37.695312 40.554688 40.449219 40.554688 Z M 40.449219 40.554688 " fill-opacity="1" fill-rule="evenodd"/></g><g clip-path="url(#3b8e2aee06)"><path fill="#efefef" d="M 110.984375 40.554688 L 108.488281 40.554688 L 108.488281 30.578125 L 110.984375 30.578125 C 119.25 30.578125 125.949219 37.277344 125.949219 45.542969 L 125.949219 63.003906 C 125.949219 64.574219 126.6875 66.050781 127.945312 66.992188 L 133.929688 71.484375 C 135.128906 72.382812 135.859375 73.769531 135.921875 75.265625 C 135.984375 76.761719 135.371094 78.207031 134.253906 79.203125 L 127.625 85.09375 C 126.558594 86.039062 125.949219 87.398438 125.949219 88.820312 L 125.949219 105.40625 C 125.949219 113.671875 119.25 120.371094 110.984375 120.371094 L 108.488281 120.371094 L 108.488281 110.394531 L 110.984375 110.394531 C 113.738281 110.394531 115.972656 108.160156 115.972656 105.40625 L 115.972656 88.820312 C 115.972656 84.546875 117.800781 80.476562 120.996094 77.636719 L 123.058594 75.800781 L 121.957031 74.976562 C 118.191406 72.148438 115.972656 67.714844 115.972656 63.003906 L 115.972656 45.542969 C 115.972656 42.789062 113.738281 40.554688 110.984375 40.554688 Z M 110.984375 40.554688 " fill-opacity="1" fill-rule="evenodd"/></g><g fill="#ffffff" fill-opacity="1"><g transform="translate(59.272092, 105.66094)"><g><path d="M 29.171875 -0.984375 C 25.179688 0.265625 21.671875 0.890625 18.640625 0.890625 C 14.773438 0.890625 11.953125 0 10.171875 -1.78125 C 8.390625 -3.5625 7.5 -6.414062 7.5 -10.34375 L 7.5 -37.28125 L 0.171875 -37.28125 L 0.171875 -43.171875 C 2.429688 -43.234375 4.453125 -44.035156 6.234375 -45.578125 C 8.023438 -47.128906 9.363281 -48.882812 10.25 -50.84375 C 11.144531 -52.8125 11.863281 -54.953125 12.40625 -57.265625 L 20.15625 -57.265625 C 18.96875 -52.210938 18.375 -47.898438 18.375 -44.328125 L 29.171875 -44.328125 L 27.03125 -37.28125 L 18.375 -37.28125 L 18.375 -12.75 C 18.375 -8.769531 19.625 -6.78125 22.125 -6.78125 C 23.488281 -6.78125 25.421875 -7.078125 27.921875 -7.671875 Z M 29.171875 -0.984375 "/></g></g></g></svg>