<svg xmlns="http://www.w3.org/2000/svg" xmlns:xlink="http://www.w3.org/1999/xlink" width="200" zoomAndPan="magnify" viewBox="0 0 150 149.999998" height="200" preserveAspectRatio="xMidYMid meet" version="1.0"><defs><g/><clipPath id="250ce81d43"><path d="M 0.601562 0.601562 L 149.851562 0.601562 L 149.851562 149.851562 L 0.601562 149.851562 Z M 0.601562 0.601562 " clip-rule="nonzero"/></clipPath><clipPath id="2ff7ab321a"><path d="M 20.101562 0.601562 L 130.351562 0.601562 C 141.121094 0.601562 149.851562 9.332031 149.851562 20.101562 L 149.851562 130.351562 C 149.851562 141.121094 141.121094 149.851562 130.351562 149.851562 L 20.101562 149.851562 C 9.332031 149.851562 0.601562 141.121094 0.601562 130.351562 L 0.601562 20.101562 C 0.601562 9.332031 9.332031 0.601562 20.101562 0.601562 Z M 20.101562 0.601562 " clip-rule="nonzero"/></clipPath><clipPath id="c3637e2cdd"><path d="M 15.445312 30.476562 L 43 30.476562 L 43 119.726562 L 15.445312 119.726562 Z M 15.445312 30.476562 " clip-rule="nonzero"/></clipPath><clipPath id="f2acf199bb"><path d="M 108 30.476562 L 135.605469 30.476562 L 135.605469 119.726562 L 108 119.726562 Z M 108 30.476562 " clip-rule="nonzero"/></clipPath></defs><g clip-path="url(#250ce81d43)"><g clip-path="url(#2ff7ab321a)"><path fill="#6500b0" d="M 0.601562 0.601562 L 149.851562 0.601562 L 149.851562 149.851562 L 0.601562 149.851562 Z M 0.601562 0.601562 " fill-opacity="1" fill-rule="nonzero"/></g></g><g clip-path="url(#c3637e2cdd)"><path fill="#efefef" d="M 40.324219 40.421875 L 42.808594 40.421875 L 42.808594 30.476562 L 40.324219 30.476562 C 32.085938 30.476562 25.40625 37.15625 25.40625 45.394531 L 25.40625 62.796875 C 25.40625 64.359375 24.671875 65.832031 23.417969 66.773438 L 17.453125 71.246094 C 16.257812 72.144531 15.527344 73.527344 15.46875 75.019531 C 15.40625 76.507812 16.015625 77.949219 17.132812 78.941406 L 23.738281 84.8125 C 24.800781 85.753906 25.40625 87.109375 25.40625 88.527344 L 25.40625 105.058594 C 25.40625 113.296875 32.085938 119.972656 40.324219 119.972656 L 42.808594 119.972656 L 42.808594 110.027344 L 40.324219 110.027344 C 37.578125 110.027344 35.351562 107.804688 35.351562 105.058594 L 35.351562 88.527344 C 35.351562 84.265625 33.527344 80.210938 30.34375 77.378906 L 28.285156 75.550781 L 29.382812 74.726562 C 33.140625 71.910156 35.351562 67.488281 35.351562 62.796875 L 35.351562 45.394531 C 35.351562 42.648438 37.578125 40.421875 40.324219 40.421875 Z M 40.324219 40.421875 " fill-opacity="1" fill-rule="evenodd"/></g><g clip-path="url(#f2acf199bb)"><path fill="#efefef" d="M 110.621094 40.421875 L 108.132812 40.421875 L 108.132812 30.476562 L 110.621094 30.476562 C 118.859375 30.476562 125.535156 37.15625 125.535156 45.394531 L 125.535156 62.796875 C 125.535156 64.359375 126.273438 65.832031 127.523438 66.773438 L 133.492188 71.246094 C 134.683594 72.144531 135.414062 73.527344 135.476562 75.019531 C 135.539062 76.507812 134.925781 77.949219 133.8125 78.941406 L 127.207031 84.8125 C 126.144531 85.753906 125.535156 87.109375 125.535156 88.527344 L 125.535156 105.058594 C 125.535156 113.296875 118.859375 119.972656 110.621094 119.972656 L 108.132812 119.972656 L 108.132812 110.027344 L 110.621094 110.027344 C 113.367188 110.027344 115.59375 107.804688 115.59375 105.058594 L 115.59375 88.527344 C 115.59375 84.265625 117.414062 80.210938 120.601562 77.378906 L 122.65625 75.550781 L 121.558594 74.726562 C 117.800781 71.910156 115.59375 67.488281 115.59375 62.796875 L 115.59375 45.394531 C 115.59375 42.648438 113.367188 40.421875 110.621094 40.421875 Z M 110.621094 40.421875 " fill-opacity="1" fill-rule="evenodd"/></g><g fill="#ffffff" fill-opacity="1"><g transform="translate(59.076536, 105.309975)"><g><path d="M 29.078125 -0.984375 C 25.097656 0.265625 21.597656 0.890625 18.578125 0.890625 C 14.722656 0.890625 11.90625 0 10.125 -1.78125 C 8.351562 -3.5625 7.46875 -6.40625 7.46875 -10.3125 L 7.46875 -37.15625 L 0.171875 -37.15625 L 0.171875 -43.03125 C 2.429688 -43.09375 4.445312 -43.894531 6.21875 -45.4375 C 8 -46.976562 9.332031 -48.722656 10.21875 -50.671875 C 11.113281 -52.628906 11.828125 -54.765625 12.359375 -57.078125 L 20.09375 -57.078125 C 18.90625 -52.035156 18.3125 -47.738281 18.3125 -44.1875 L 29.078125 -44.1875 L 26.9375 -37.15625 L 18.3125 -37.15625 L 18.3125 -12.71875 C 18.3125 -8.738281 19.554688 -6.75 22.046875 -6.75 C 23.410156 -6.75 25.335938 -7.046875 27.828125 -7.640625 Z M 29.078125 -0.984375 "/></g></g></g></svg>